<?xml version="1.0" encoding="utf-8"?>
<!-- Generator: Adobe Illustrator 18.0.0, SVG Export Plug-In . SVG Version: 6.00 Build 0)  -->
<!DOCTYPE svg PUBLIC "-//W3C//DTD SVG 1.1 Basic//EN" "http://www.w3.org/Graphics/SVG/1.1/DTD/svg11-basic.dtd">
<svg version="1.1" baseProfile="basic" id="Layer_1"
	 xmlns="http://www.w3.org/2000/svg" xmlns:xlink="http://www.w3.org/1999/xlink" x="0px" y="0px" viewBox="0 0 148 40"
	 xml:space="preserve">
<g>
	<g>
		<path fill="#47BA04" d="M32.2,14.5c-0.3-0.6-0.7-1.1-1.2-1.5c-0.5-0.4-1-0.7-1.6-0.8c-0.6-0.2-1.1-0.3-1.6-0.3h-8.6v3.4h8.6
			c0.4,0,0.8,0.1,1.1,0.4c0.3,0.3,0.4,0.6,0.4,1.1v1.5h-6.6c-0.9,0-1.7,0.2-2.3,0.5c-0.6,0.3-1.1,0.7-1.5,1.2
			c-0.4,0.5-0.7,1-0.8,1.6c-0.2,0.6-0.3,1.1-0.3,1.6c0,0.9,0.2,1.7,0.5,2.3c0.3,0.6,0.7,1.1,1.2,1.5c0.5,0.4,1,0.7,1.6,0.8
			c0.6,0.2,1.1,0.3,1.6,0.3h5c0.9,0,1.7-0.2,2.3-0.5c0.6-0.3,1.1-0.7,1.5-1.2c0.4-0.5,0.7-1,0.8-1.6c0.2-0.6,0.3-1.1,0.3-1.6v-6.4
			C32.7,15.9,32.6,15.1,32.2,14.5z M29.3,23.2c0,0.4-0.1,0.8-0.4,1.1c-0.3,0.3-0.6,0.4-1.1,0.4h-5c-0.4,0-0.8-0.1-1.1-0.4
			c-0.3-0.3-0.5-0.6-0.5-1.1c0-0.4,0.1-0.8,0.4-1.1c0.3-0.3,0.6-0.4,1.1-0.4h6.6V23.2z"/>
	</g>
	<g>
		<path fill="#47BA04" d="M61.4,21.7c0.9,0,1.7-0.2,2.3-0.5c0.6-0.3,1.1-0.7,1.5-1.2c0.4-0.5,0.7-1,0.9-1.6c0.2-0.6,0.3-1.1,0.3-1.6
			c0-0.9-0.2-1.7-0.5-2.3c-0.3-0.6-0.7-1.1-1.2-1.5c-0.5-0.4-1-0.7-1.6-0.9c-0.6-0.2-1.1-0.3-1.6-0.3h-5.1c-0.9,0-1.7,0.2-2.3,0.5
			c-0.6,0.3-1.1,0.7-1.5,1.2c-0.4,0.5-0.7,1-0.9,1.6c-0.2,0.6-0.3,1.1-0.3,1.6v6.5c0,0.9,0.2,1.7,0.5,2.3c0.3,0.6,0.7,1.1,1.2,1.5
			c0.5,0.4,1,0.7,1.6,0.8c0.6,0.2,1.1,0.3,1.6,0.3h9.5v-3.4h-9.5c-0.4,0-0.8-0.1-1.1-0.4c-0.3-0.3-0.4-0.6-0.4-1.1v-1.5H61.4z
			 M54.8,16.8c0-0.4,0.1-0.8,0.4-1.1c0.3-0.3,0.6-0.4,1.1-0.4h5.1c0.4,0,0.8,0.1,1.1,0.4c0.3,0.3,0.4,0.6,0.4,1.1
			c0,0.4-0.1,0.8-0.4,1.1c-0.3,0.3-0.6,0.4-1.1,0.4h-6.6V16.8z"/>
	</g>
	<g>
		<path fill="#47BA04" d="M91,28.1C91,28.1,91,28.1,91,28.1l-5.4,0c-1.9,0-3.1-0.8-3.7-1.4c-1.2-1.3-1.2-3-1.2-3.5v-6.5
			c0-1.9,0.8-3,1.4-3.6c1.3-1.2,3-1.3,3.5-1.2h6.8V6h3.5v17.3c0,1.8-0.7,2.9-1.3,3.5C93.2,28.1,91.4,28.1,91,28.1z M84.2,23.4
			c0,0.2,0,0.7,0.3,1c0.3,0.3,0.7,0.3,1.1,0.3H91c1.4,0,1.4-1,1.4-1.4v-8l-6.9,0c0,0,0,0,0,0c-0.2,0-0.7,0.1-1,0.3
			c-0.2,0.2-0.3,0.6-0.3,1.1L84.2,23.4z"/>
	</g>
	<g>
		<path fill="#47BA04" d="M4.5,34H1V16.6c0-1.8,0.7-2.9,1.3-3.5c1.4-1.3,3.2-1.4,3.5-1.4h5.4c1.9,0,3.1,0.8,3.7,1.4
			c1.2,1.3,1.2,3,1.2,3.5v6.5c0,1.9-0.8,3-1.4,3.6c-1.3,1.2-3.1,1.3-3.5,1.2H4.5V34z M11.4,24.7c0.2,0,0.7-0.1,1-0.3
			c0.2-0.2,0.3-0.6,0.3-1.1l0-6.7c0-0.2,0-0.7-0.3-1c-0.3-0.3-0.7-0.3-1.1-0.3H5.8c-1.4,0-1.4,1-1.4,1.4v8L11.4,24.7z"/>
	</g>
	<g>
		<path fill="#47BA04" d="M71.2,28.1h-3.5V16.7c0-1.8,0.7-2.9,1.3-3.5c1.4-1.3,3.2-1.4,3.5-1.4h6.7v3.5h-6.7c-1.4,0-1.4,1-1.4,1.4
			V28.1z"/>
	</g>
	<g>
		<path fill="#47BA04" d="M102.5,28.2c-0.3,0-2.1-0.1-3.5-1.4c-0.6-0.6-1.3-1.7-1.3-3.4V11.8h3.5v11.5c0,0.8,0.3,1,0.5,1.2
			c0.3,0.2,0.7,0.2,0.9,0.2l6.8,0V11.8h3.5v16.3L102.5,28.2C102.5,28.2,102.5,28.2,102.5,28.2z"/>
	</g>
	<g>
		<path fill="#47BA04" d="M44.6,33.8h-8.2v-3.5h8.2c0.9,0,1.2-0.3,1.4-0.7c0.2-0.4,0.3-0.8,0.3-1v-0.7h-6.5c-0.4,0-2.3,0-3.7-1.3
			c-0.7-0.6-1.5-1.8-1.5-3.8v-6c0-0.4,0-2.3,1.3-3.7c0.6-0.7,1.8-1.5,3.8-1.5h4.9c2,0,5.1,1.4,5.1,5.1v11.9
			C49.6,30.8,48.2,33.8,44.6,33.8z M38,16.8L38,16.8L38,16.8l0,6.1c0,0.6,0.1,1,0.4,1.3c0.4,0.4,1.1,0.4,1.1,0.4l0.1,0h6.6l0-7.7
			c0-0.9-0.4-1.2-0.7-1.4c-0.4-0.2-0.9-0.2-0.9-0.2h-4.9c-0.6,0-1,0.1-1.3,0.4C38,16,38,16.6,38,16.8z"/>
	</g>
	<g>
		<path fill="#47BA04" d="M141.5,33.9h-8.2v-3.5h8.2c0.9,0,1.2-0.3,1.3-0.7c0.2-0.4,0.3-0.8,0.3-1v-0.6h-6.5c-2,0-3.2-0.8-3.8-1.5
			c-1.3-1.4-1.3-3.2-1.3-3.7V11.8h3.5l0,11.3c0,0.2,0.1,0.8,0.4,1.2c0.2,0.3,0.7,0.4,1.3,0.4h6.5V11.8h3.5v17
			C146.6,30.9,145.2,33.9,141.5,33.9z"/>
	</g>
	<g>
		<polygon fill="#47BA04" points="123.8,28.2 120.3,28.2 120.3,15.3 114.5,15.3 114.5,11.8 120.3,11.8 120.3,7.4 123.8,7.4 
			123.8,11.8 129.7,11.8 129.7,15.3 123.8,15.3 		"/>
	</g>
</g>
</svg>
